<?xml version="1.0" encoding="UTF-8" standalone="no"?>
<!-- Created with Inkscape (http://www.inkscape.org/) -->

<svg
   version="1.1"
   id="svg659"
   width="880"
   height="880"
   viewBox="0 0 880 880"
   sodipodi:docname="car-wheels-publicdomainvectors.org.svg"
   inkscape:version="1.2 (dc2aedaf03, 2022-05-15)"
   xmlns:inkscape="http://www.inkscape.org/namespaces/inkscape"
   xmlns:sodipodi="http://sodipodi.sourceforge.net/DTD/sodipodi-0.dtd"
   xmlns="http://www.w3.org/2000/svg"
   xmlns:svg="http://www.w3.org/2000/svg">
  <defs
     id="defs663">
    <clipPath
       clipPathUnits="userSpaceOnUse"
       id="clipPath675">
      <path
         d="M 0,660 H 660 V 0 H 0 Z"
         id="path673" />
    </clipPath>
  </defs>
  <sodipodi:namedview
     id="namedview661"
     pagecolor="#ffffff"
     bordercolor="#000000"
     borderopacity="0.25"
     inkscape:showpageshadow="2"
     inkscape:pageopacity="0.0"
     inkscape:pagecheckerboard="0"
     inkscape:deskcolor="#d1d1d1"
     showgrid="false"
     inkscape:zoom="0.95113636"
     inkscape:cx="440.52569"
     inkscape:cy="440.52569"
     inkscape:window-width="1920"
     inkscape:window-height="1017"
     inkscape:window-x="-8"
     inkscape:window-y="-8"
     inkscape:window-maximized="1"
     inkscape:current-layer="g667">
    <inkscape:page
       x="0"
       y="0"
       id="page665"
       width="880"
       height="880" />
  </sodipodi:namedview>
  <g
     id="g667"
     inkscape:groupmode="layer"
     inkscape:label="Page 1"
     transform="matrix(1.3333333,0,0,-1.3333333,0,880)">
    <g
       id="g669">
      <g
         id="g671"
         clip-path="url(#clipPath675)">
        <g
           id="g677"
           transform="translate(394.3848,171.9355)">
          <path
             d="m 0,0 c 137.43,0 249.517,32.049 249.517,71.344 0,39.293 -112.087,71.341 -249.517,71.341 -137.43,0 -249.518,-32.048 -249.518,-71.341 C -249.518,32.049 -137.43,0 0,0"
             style="fill:#e6e6e6;fill-opacity:1;fill-rule:evenodd;stroke:none"
             id="path679" />
        </g>
        <g
           id="g681"
           transform="translate(350.2617,297.3184)">
          <path
             d="m 0,0 c 0,-44.118 63.838,-79.882 142.585,-79.882 78.746,0 142.584,35.764 142.584,79.882 V 70.266 H 233.86 c -24.73,11.558 -56.551,18.515 -91.275,18.515 -34.725,0 -66.546,-6.957 -91.276,-18.515 H 0 Z"
             style="fill:#333333;fill-opacity:1;fill-rule:evenodd;stroke:none"
             id="path683" />
        </g>
        <g
           id="g685"
           transform="translate(350.2617,367.5845)">
          <path
             d="m 0,0 c 0,-44.119 63.838,-79.883 142.585,-79.883 78.746,0 142.584,35.764 142.584,79.883 0,44.118 -63.838,79.883 -142.584,79.883 C 63.838,79.883 0,44.118 0,0"
             style="fill:#333333;fill-opacity:1;fill-rule:evenodd;stroke:none"
             id="path687" />
        </g>
        <g
           id="g689"
           transform="translate(398.6602,367.5845)">
          <path
             d="m 0,0 c 0,-29.143 42.169,-52.768 94.186,-52.768 52.017,0 94.186,23.625 94.186,52.768 0,29.143 -42.169,52.768 -94.186,52.768 C 42.169,52.768 0,29.143 0,0"
             style="fill:#cccccc;fill-opacity:1;fill-rule:evenodd;stroke:none"
             id="path691" />
        </g>
        <g
           id="g693"
           transform="translate(405.2842,348.1113)">
          <path
             d="m 0,0 c 13.83,-19.504 47.82,-33.295 87.563,-33.295 39.741,0 73.731,13.791 87.561,33.295 -13.83,19.504 -47.82,33.295 -87.561,33.295 C 47.82,33.295 13.83,19.504 0,0"
             style="fill:#ffffff;fill-opacity:1;fill-rule:evenodd;stroke:none"
             id="path695" />
        </g>
        <g
           id="g697"
           transform="translate(460.4385,337.7295)">
          <path
             d="m 0,0 c 0,-10.027 14.51,-18.156 32.408,-18.156 17.898,0 32.407,8.129 32.407,18.156 V 29.855 H 0 Z"
             style="fill:#b8b8b8;fill-opacity:1;fill-rule:evenodd;stroke:none"
             id="path699" />
        </g>
        <g
           id="g701"
           transform="translate(402.6631,352.3301)">
          <path
             d="m 0,0 c 5.255,-9.766 15.424,-18.336 28.897,-24.811 l 38.375,8.62 v 10.48 h -9.47 c -0.194,1.301 -0.196,2.675 -0.027,4.113 V 4.774 C 39.449,5.358 21.122,5.943 2.796,6.527 2.271,5.61 1.04,2.845 0,0 m 154.271,33.038 v 10.48 h -21.355 c -12.049,3.516 -26.443,5.215 -40.849,5.606 L 82.496,13.541 114.252,7.205 Z m -53.94,-45.817 v -10.48 l 9.61,-13.088 c 17.792,2.129 33.724,7.072 46.238,13.958 L 122.591,-9.3 v -5.713 c -1.033,-1.128 -2.222,-2.134 -3.555,-3.025 v 5.259 z"
             style="fill:#d4d4d4;fill-opacity:1;fill-rule:evenodd;stroke:none"
             id="path703" />
        </g>
        <g
           id="g705"
           transform="translate(519.5742,316.9717)">
          <path
             d="M 0,0 C 20.057,3.319 37.322,10.281 49.365,19.515 L 5.68,36.538 V 30.825 C 1.093,25.821 -6.482,23.197 -16.58,22.579 Z M -2.659,53.043 37.36,78.876 C 24.494,89.781 -0.16,94.293 -24.844,94.961 l -9.571,-35.582 z m -56.477,-2.43 c -18.326,0.584 -36.653,1.169 -54.979,1.753 -1.128,-1.974 -5.524,-12.485 -4.257,-13.968 3.176,-7.506 9.211,-14.393 17.429,-20.277 l 51.303,11.526 c -7.664,3.17 -9.496,8.254 -9.496,14.594 z"
             style="fill:#e6e6e6;fill-opacity:1;fill-rule:evenodd;stroke:none"
             id="path707" />
        </g>
        <g
           id="g709"
           transform="translate(460.4385,367.5845)">
          <path
             d="m 0,0 c 0,-10.028 14.51,-18.157 32.408,-18.157 17.898,0 32.407,8.129 32.407,18.157 0,10.027 -14.509,18.156 -32.407,18.156 C 14.51,18.156 0,10.027 0,0"
             style="fill:#ffffff;fill-opacity:1;fill-rule:evenodd;stroke:none"
             id="path711" />
        </g>
        <g
           id="g713"
           transform="translate(251.7695,397.937)">
          <path
             d="m 0,0 c 0,-44.118 63.837,-79.882 142.583,-79.882 78.746,0 142.585,35.764 142.585,79.882 v 70.266 h -51.309 c -24.73,11.558 -56.55,18.516 -91.276,18.516 -34.724,0 -66.546,-6.958 -91.275,-18.516 L 0,70.266 Z"
             style="fill:#333333;fill-opacity:1;fill-rule:evenodd;stroke:none"
             id="path715" />
        </g>
        <g
           id="g717"
           transform="translate(251.7695,468.2026)">
          <path
             d="m 0,0 c 0,-44.118 63.837,-79.883 142.583,-79.883 78.746,0 142.585,35.765 142.585,79.883 0,44.118 -63.839,79.883 -142.585,79.883 C 63.837,79.883 0,44.118 0,0"
             style="fill:#333333;fill-opacity:1;fill-rule:evenodd;stroke:none"
             id="path719" />
        </g>
        <g
           id="g721"
           transform="translate(300.167,468.2026)">
          <path
             d="m 0,0 c 0,-29.142 42.168,-52.767 94.185,-52.767 52.018,0 94.187,23.625 94.187,52.767 0,29.143 -42.169,52.768 -94.187,52.768 C 42.168,52.768 0,29.143 0,0"
             style="fill:#cccccc;fill-opacity:1;fill-rule:evenodd;stroke:none"
             id="path723" />
        </g>
        <g
           id="g725"
           transform="translate(306.79,448.7305)">
          <path
             d="m 0,0 c 13.832,-19.505 47.822,-33.295 87.562,-33.295 39.743,0 73.733,13.79 87.563,33.295 -13.83,19.504 -47.82,33.294 -87.563,33.294 C 47.822,33.294 13.832,19.504 0,0"
             style="fill:#ffffff;fill-opacity:1;fill-rule:evenodd;stroke:none"
             id="path727" />
        </g>
        <g
           id="g729"
           transform="translate(361.9453,438.3481)">
          <path
             d="m 0,0 c 0,-10.028 14.51,-18.156 32.407,-18.156 17.899,0 32.408,8.128 32.408,18.156 V 29.854 H 0 Z"
             style="fill:#b8b8b8;fill-opacity:1;fill-rule:evenodd;stroke:none"
             id="path731" />
        </g>
        <g
           id="g733"
           transform="translate(304.1709,452.9487)">
          <path
             d="m 0,0 c 5.253,-9.766 15.423,-18.337 28.895,-24.812 l 38.376,8.621 v 10.48 h -9.469 c -0.195,1.301 -0.198,2.675 -0.028,4.114 V 4.774 C 39.447,5.359 21.121,5.943 2.794,6.528 2.27,5.609 1.039,2.844 0,0 m 154.27,33.039 v 10.479 h -21.354 c -12.049,3.515 -26.444,5.215 -40.851,5.605 L 82.495,13.542 114.25,7.205 Z m -53.94,-45.818 v -10.48 l 9.61,-13.088 c 17.793,2.13 33.725,7.072 46.239,13.958 L 122.59,-9.3 v -5.712 c -1.035,-1.129 -2.222,-2.135 -3.554,-3.027 v 5.26 z"
             style="fill:#d4d4d4;fill-opacity:1;fill-rule:evenodd;stroke:none"
             id="path735" />
        </g>
        <g
           id="g737"
           transform="translate(421.0811,417.5908)">
          <path
             d="M 0,0 C 20.057,3.319 37.321,10.28 49.364,19.514 L 5.68,36.538 V 30.825 C 1.094,25.82 -6.483,23.196 -16.58,22.579 Z M -2.66,53.043 37.36,78.875 C 24.495,89.781 -0.159,94.293 -24.845,94.961 l -9.57,-35.582 z m -56.476,-2.431 c -18.327,0.585 -36.653,1.169 -54.98,1.753 -1.126,-1.973 -5.522,-12.484 -4.256,-13.967 3.175,-7.507 9.21,-14.393 17.429,-20.277 l 51.303,11.526 c -7.665,3.169 -9.496,8.254 -9.496,14.593 z"
             style="fill:#e6e6e6;fill-opacity:1;fill-rule:evenodd;stroke:none"
             id="path739" />
        </g>
        <g
           id="g741"
           transform="translate(361.9453,468.2026)">
          <path
             d="m 0,0 c 0,-10.027 14.51,-18.156 32.407,-18.156 17.899,0 32.408,8.129 32.408,18.156 0,10.028 -14.509,18.156 -32.408,18.156 C 14.51,18.156 0,10.028 0,0"
             style="fill:#ffffff;fill-opacity:1;fill-rule:evenodd;stroke:none"
             id="path743" />
        </g>
        <g
           id="g745"
           transform="translate(283.7178,532.3599)">
          <path
             d="M 0,0 C 87.497,-5.265 150.147,-79.965 139.931,-166.847 129.716,-253.73 50.504,-319.895 -36.992,-314.63 l -77.24,4.646 6.656,56.61 c -19.716,28.665 -29.386,64.604 -24.881,102.916 4.504,38.311 22.432,72.59 48.562,98.497 l 6.657,56.608 z"
             style="fill:#000000;fill-opacity:1;fill-rule:evenodd;stroke:none"
             id="path747" />
        </g>
        <g
           id="g749"
           transform="translate(206.4795,537.0073)">
          <path
             d="m 0,0 c 87.497,-5.265 150.147,-79.965 139.931,-166.848 -10.215,-86.882 -89.427,-153.047 -176.925,-147.783 -87.497,5.264 -150.146,79.966 -139.931,166.848 C -166.709,-60.9 -87.498,5.264 0,0"
             style="fill:#333333;fill-opacity:1;fill-rule:evenodd;stroke:none"
             id="path751" />
        </g>
        <g
           id="g753"
           transform="translate(200.2002,483.6084)">
          <path
             d="m 0,0 c 57.798,-3.477 99.182,-52.822 92.434,-110.213 -6.748,-57.391 -59.072,-101.098 -116.87,-97.62 -57.797,3.478 -99.182,52.822 -92.433,110.213 C -110.122,-40.229 -57.797,3.477 0,0"
             style="fill:#cccccc;fill-opacity:1;fill-rule:evenodd;stroke:none"
             id="path755" />
        </g>
        <g
           id="g757"
           transform="translate(237.9619,473.9775)">
          <path
             d="m 0,0 c 36.887,-17.587 59.828,-56.734 54.672,-100.582 -5.155,-43.848 -36.914,-79.703 -77.391,-92.637 -36.888,17.588 -59.829,56.736 -54.674,100.583 C -72.236,-48.789 -40.478,-12.933 0,0"
             style="fill:#ffffff;fill-opacity:1;fill-rule:evenodd;stroke:none"
             id="path759" />
        </g>
        <g
           id="g761"
           transform="translate(251.3955,411.8853)">
          <path
             d="M 0,0 C 19.887,-1.196 34.128,-18.175 31.806,-37.922 29.484,-57.669 11.479,-72.708 -8.408,-71.511 l -59.209,3.561 8.408,71.513 z"
             style="fill:#b8b8b8;fill-opacity:1;fill-rule:evenodd;stroke:none"
             id="path763" />
        </g>
        <g
           id="g765"
           transform="translate(229.9346,477.373)">
          <path
             d="M 0,0 C 18.686,-6.964 34.365,-19.206 45.46,-34.843 L 23.384,-76.154 2.6,-74.903 3.828,-64.456 c -2.556,0.369 -5.28,0.535 -8.154,0.52 -4.213,0.253 -8.426,0.507 -12.638,0.76 1.219,20.29 2.437,40.581 3.655,60.87 C -11.421,-1.837 -5.774,-0.809 0,0 m -85.537,-166.27 -20.784,1.252 2.771,23.561 c -5.409,13.713 -6.913,29.798 -5.818,45.74 l 71.809,6.313 8.448,-35.792 z m 97.864,54.047 20.785,-1.25 24.709,-12.166 c -6.53,-19.376 -18.396,-36.363 -33.679,-49.347 l -21.602,38.619 11.329,-0.682 c 2.372,1.007 4.524,2.196 6.465,3.561 l -10.432,0.627 z"
             style="fill:#d4d4d4;fill-opacity:1;fill-rule:evenodd;stroke:none"
             id="path767" />
        </g>
        <g
           id="g769"
           transform="translate(284.8926,344.1631)">
          <path
             d="m 0,0 c -9.186,-21.732 -25.23,-39.95 -45.107,-52.136 l -28.094,50.229 11.33,-0.681 c 10.519,4.463 16.706,12.509 19.24,23.575 z m -104.853,9.264 -56.426,-41.073 c -19.958,15.497 -25.708,43.238 -23.83,70.552 l 71.808,6.313 z m 12.147,62.021 c 1.219,20.29 2.437,40.58 3.655,60.871 4.06,1.007 25.478,4.601 28.253,3.029 14.475,-4.4 27.351,-11.88 37.955,-21.649 L -52.358,58.307 c -5.292,8.834 -15.139,11.461 -27.71,12.218 -4.213,0.252 -8.425,0.507 -12.638,0.76"
             style="fill:#e6e6e6;fill-opacity:1;fill-rule:evenodd;stroke:none"
             id="path771" />
        </g>
        <g
           id="g773"
           transform="translate(192.1865,415.4482)">
          <path
             d="M 0,0 C 19.888,-1.197 34.127,-18.175 31.805,-37.923 29.483,-57.67 11.48,-72.709 -8.408,-71.513 -28.295,-70.315 -42.535,-53.337 -40.213,-33.589 -37.891,-13.842 -19.888,1.196 0,0"
             style="fill:#ffffff;fill-opacity:1;fill-rule:evenodd;stroke:none"
             id="path775" />
        </g>
      </g>
    </g>
  </g>
</svg>
